<svg width="16" height="16" viewBox="0 0 16 16" fill="none" xmlns="http://www.w3.org/2000/svg"><path fill-rule="evenodd" clip-rule="evenodd" d="M7.019.855a2 2 0 0 1 2.691.706l.002.003 5.647 9.427.005.009a2 2 0 0 1-1.71 3H2.347a2 2 0 0 1-1.71-3l.005-.01L6.29 1.56a2 2 0 0 1 .73-.704M8 1.931a.67.67 0 0 0-.569.32l-5.642 9.42a.667.667 0 0 0 .569.996h11.285a.667.667 0 0 0 .569-.996L8.57 2.252a.67.67 0 0 0-.57-.32m0 2.736c.368 0 .667.298.667.666V8a.667.667 0 1 1-1.333 0V5.333c0-.368.298-.666.666-.666m-.666 6c0-.368.298-.667.666-.667h.007a.667.667 0 0 1 0 1.333H8a.667.667 0 0 1-.666-.666" fill="currentColor"></path></svg>