<svg width="16" height="16" viewBox="0 0 16 16" fill="none" xmlns="http://www.w3.org/2000/svg"><path d="M14 8a.667.667 0 1 1 0 1.333H2A.667.667 0 1 1 2 8zM5.333 4.333a1 1 0 1 0-1 1v1.334a2.333 2.333 0 1 1 0-4.667 2.333 2.333 0 0 1 0 4.667V5.333a1 1 0 0 0 1-1m7.334 1v1.334h-2V5.333zm0-2h-2v3.334l-.136-.007a1.33 1.33 0 0 1-1.19-1.19l-.008-.137v-2C9.333 2.597 9.93 2 10.667 2h2C13.403 2 14 2.597 14 3.333v2c0 .69-.525 1.258-1.197 1.327l-.136.007z" fill="currentColor"></path><path d="M6.988 8.824a1.333 1.333 0 0 1 2.024 0l2.551 2.975c.741.865.127 2.2-1.012 2.201H5.449c-1.139 0-1.753-1.336-1.012-2.201zm-1.539 3.843h5.102L8 9.69z" fill="currentColor"></path></svg>