<svg width="16" height="16" viewBox="0 0 16 16" fill="none" xmlns="http://www.w3.org/2000/svg"><path fill-rule="evenodd" clip-rule="evenodd" d="M4.907 5a3.334 3.334 0 0 1 6.534 0zM3.554 5a4.668 4.668 0 0 1 9.24 0h.046c.737 0 1.334.597 1.334 1.333v1.334c0 .736-.597 1.333-1.333 1.333h-.137l-.91 3.934A2.67 2.67 0 0 1 9.198 15h-2.28c-1.293 0-2.4-.927-2.626-2.2L3.615 9h-.108a1.333 1.333 0 0 1-1.333-1.333V6.333C2.174 5.597 2.77 5 3.507 5zm9.287 2.667V6.333H3.507v1.334zm-7.237 4.9L4.969 9h6.366l-.84 3.634a1.33 1.33 0 0 1-1.298 1.033h-2.28c-.647 0-1.2-.464-1.313-1.1" fill="currentColor"></path></svg>