<svg width="16" height="16" viewBox="0 0 16 16" fill="none" xmlns="http://www.w3.org/2000/svg"><path fill-rule="evenodd" clip-rule="evenodd" d="M5.392.03A6 6 0 0 1 11.657 4h.348a4 4 0 0 1 1.6 7.664.667.667 0 1 1-.535-1.221 2.667 2.667 0 0 0-1.067-5.11h-.84a.67.67 0 0 1-.645-.5 4.667 4.667 0 1 0-7.431 4.813.667.667 0 0 1-.833 1.041A6 6 0 0 1 5.392.031M5.337 8c.368 0 .667.298.667.667V14a.667.667 0 1 1-1.333 0V8.667c0-.369.298-.667.666-.667m5.334 0c.368 0 .666.298.666.667V14a.667.667 0 0 1-1.333 0V8.667c0-.369.298-.667.667-.667M8.004 9.333c.368 0 .667.299.667.667v5.333a.667.667 0 1 1-1.334 0V10c0-.368.299-.667.667-.667" fill="currentColor"></path></svg>