<svg width="16" height="16" viewBox="0 0 16 16" fill="none" xmlns="http://www.w3.org/2000/svg"><path d="M9.746 7.34 8 7.334l-1.746.008a.31.31 0 0 0-.234.103 2.75 2.75 0 0 0-.635 1.295 2.8 2.8 0 0 0 .151 1.576c.202.5.544.925.983 1.225a2.62 2.62 0 0 0 2.963 0c.438-.3.78-.726.982-1.225a2.8 2.8 0 0 0 .151-1.576 2.75 2.75 0 0 0-.634-1.295.31.31 0 0 0-.235-.103" fill="currentColor"></path><path fill-rule="evenodd" clip-rule="evenodd" d="m9.05 2.009 2.802 3.581c.941 1.202 1.481 2.666 1.481 4.057 0 2.686-2.5 5.02-5.333 5.02s-5.333-2.334-5.333-5.02c-.001-1.416.561-2.88 1.481-4.057L6.95 2.01a1.333 1.333 0 0 1 2.1 0m1.752 4.403C11.582 7.408 12 8.59 12 9.647c0 1.872-1.823 3.686-4 3.686S4 11.52 4 9.647c0-1.077.435-2.259 1.198-3.235L8 2.831z" fill="currentColor"></path></svg>