<svg width="16" height="16" viewBox="0 0 16 16" fill="none" xmlns="http://www.w3.org/2000/svg"><path d="M8.916 6.074a.46.46 0 0 0-.139-.66.516.516 0 0 0-.693.131l-2 2.858a.46.46 0 0 0-.025.488.5.5 0 0 0 .441.252h2.066L7.084 11.26a.46.46 0 0 0 .139.66c.23.146.54.087.693-.132l2-2.857a.46.46 0 0 0 .025-.489.5.5 0 0 0-.441-.251H7.434z" fill="currentColor"></path><path fill-rule="evenodd" clip-rule="evenodd" d="m9.05 2.009 2.802 3.581c.941 1.202 1.481 2.666 1.481 4.057 0 2.686-2.5 5.02-5.333 5.02s-5.333-2.334-5.333-5.02c-.001-1.416.561-2.88 1.481-4.057L6.95 2.01a1.333 1.333 0 0 1 2.1 0m1.752 4.403C11.582 7.408 12 8.59 12 9.647c0 1.872-1.823 3.686-4 3.686S4 11.52 4 9.647c0-1.077.435-2.259 1.198-3.235L8 2.831z" fill="currentColor"></path></svg>