<svg width="16" height="16" viewBox="0 0 16 16" fill="none" xmlns="http://www.w3.org/2000/svg"><path fill-rule="evenodd" clip-rule="evenodd" d="M2.471 1.402a.667.667 0 1 0-.942.942L4.423 5.24l-.275.351c-.92 1.176-1.482 2.641-1.481 4.057 0 2.686 2.5 5.02 5.333 5.02 1.57 0 3.04-.718 4.036-1.815l2.16 2.16a.667.667 0 0 0 .942-.944zm8.62 10.505L5.373 6.189l-.175.223C4.434 7.388 4 8.57 4 9.646c0 1.873 1.822 3.687 4 3.687 1.233 0 2.352-.582 3.091-1.426" fill="currentColor"></path><path d="M10.802 6.412c.507.647.86 1.372 1.047 2.091l1.472 1.473q.012-.164.012-.33c0-1.39-.54-2.854-1.48-4.056L9.05 2.01a1.333 1.333 0 0 0-2.1 0l-.7.895.95.95.8-1.023z" fill="currentColor"></path></svg>