<svg width="16" height="16" viewBox="0 0 16 16" fill="none" xmlns="http://www.w3.org/2000/svg">
<path fill-rule="evenodd" clip-rule="evenodd" d="M8.46807 1.26753C8.34298 1.14243 8.17329 1.07219 7.99637 1.07227C7.81946 1.07234 7.64983 1.14274 7.52485 1.26794L3.75835 5.04111C2.91906 5.88 2.34737 6.94894 2.11558 8.11275C1.88375 9.27674 2.00234 10.4833 2.45635 11.5799C2.91036 12.6765 3.67939 13.6138 4.66617 14.2733C5.65295 14.9327 6.81315 15.2847 8 15.2847C9.18686 15.2847 10.3471 14.9327 11.3338 14.2733C12.3206 13.6138 13.0896 12.6765 13.5437 11.5799C13.9977 10.4833 14.1163 9.27674 13.8844 8.11275C13.6526 6.94883 13.0807 5.87964 12.2413 5.04071L8.46807 1.26753ZM4.70125 5.98382L7.99709 2.68216L11.2988 5.98382C11.9517 6.63635 12.3965 7.46786 12.5768 8.37319C12.7571 9.27852 12.6649 10.217 12.3117 11.0699C11.9586 11.9228 11.3605 12.6518 10.593 13.1647C9.82549 13.6776 8.92311 13.9514 8 13.9514C7.07689 13.9514 6.17452 13.6776 5.40702 13.1647C4.63953 12.6518 4.04139 11.9228 3.68827 11.0699C3.33515 10.217 3.24292 9.27852 3.42323 8.37319C3.60354 7.46786 4.0483 6.63635 4.70125 5.98382ZM10.152 6.98098L8 6.97201L5.84799 6.98098C5.71661 6.98152 5.58939 7.03259 5.5021 7.13078C5.11267 7.5689 4.84592 8.1027 4.73071 8.67851C4.6021 9.3213 4.66811 9.98758 4.92041 10.5931C5.1727 11.1986 5.59994 11.7161 6.1481 12.0802C6.69627 12.4443 7.34073 12.6387 8 12.6387C8.65927 12.6387 9.30373 12.4443 9.8519 12.0802C10.4001 11.7161 10.8273 11.1986 11.0796 10.5931C11.3319 9.98758 11.3979 9.3213 11.2693 8.67851C11.1541 8.1027 10.8873 7.5689 10.4979 7.13078C10.4106 7.03259 10.2834 6.98152 10.152 6.98098Z" fill="currentColor"></path>
</svg>