<svg width="16" height="16" viewBox="0 0 16 16" fill="none" xmlns="http://www.w3.org/2000/svg"><path d="M6.95 2.009a1.334 1.334 0 0 1 2.1 0l2.802 3.582c.941 1.201 1.481 2.666 1.481 4.056 0 2.687-2.5 5.02-5.333 5.02s-5.333-2.333-5.333-5.02c0-1.416.561-2.88 1.481-4.056zM5.198 6.412C4.434 7.388 4 8.57 4 9.646v.001c0 1.872 1.822 3.687 4 3.687s4-1.815 4-3.687c0-1.058-.418-2.239-1.197-3.235L8 2.83zm5.135 2.922c.184 0 .336.15.313.332a2.668 2.668 0 0 1-5.292 0c-.023-.183.129-.332.313-.332z" fill="currentColor"></path></svg>