<svg width="24" height="24" viewBox="0 0 24 24" fill="none" xmlns="http://www.w3.org/2000/svg"><path fill-rule="evenodd" clip-rule="evenodd" d="M4.37 1.58C5.114 1.264 6.254 1 8 1c1.693 0 3.097.561 4.316 1.05l.055.022C13.64 2.579 14.72 3 16 3c1.387 0 2.29-.23 2.816-.433.265-.102.439-.198.535-.259q.073-.046.09-.06l.004-.004A1 1 0 0 1 21.1 3v12a1 1 0 0 1-.327.74L20.1 15l.672.74-.001.002-.003.002-.004.004-.01.009a2 2 0 0 1-.102.082q-.09.069-.24.165a5 5 0 0 1-.878.43c-.773.297-1.92.566-3.534.566-1.693 0-3.097-.561-4.316-1.05l-.055-.021C10.36 15.42 9.28 15 8 15c-1.387 0-2.26.23-2.754.428a3 3 0 0 0-.246.11V22a1 1 0 1 1-2 0V3a1 1 0 0 1 .18-.573L4 3a44 44 0 0 1-.818-.575l.001-.002.003-.004.005-.007.012-.017a1 1 0 0 1 .103-.121q.087-.095.23-.211c.193-.154.463-.325.835-.483M5 3.492v9.905C5.728 13.173 6.708 13 8 13c1.693 0 3.097.562 4.316 1.05l.055.021C13.64 14.58 14.72 15 16 15c1.387 0 2.29-.23 2.816-.433q.165-.065.284-.122V4.583C18.351 4.816 17.335 5 16 5c-1.693 0-3.097-.561-4.316-1.05l-.055-.022C10.36 3.421 9.28 3 8 3c-1.553 0-2.413.236-2.846.42q-.088.038-.154.072" fill="currentColor"></path></svg>