<svg width="16" height="16" viewBox="0 0 16 16" fill="none" xmlns="http://www.w3.org/2000/svg"><path d="M7.482 4.96c.932-1.724 3.438-1.724 4.37 0l3.853 7.117c.88 1.626-.316 3.59-2.185 3.59H2.443c-1.848 0-3.026-1.922-2.145-3.503l2.557-4.588c.748-1.343 2.495-1.597 3.623-.763zM5.685 8.277c-.328-.5-1.103-.484-1.4.051l-2.556 4.588c-.294.527.098 1.168.714 1.168h5.113q.147-.001.274-.046a.784.784 0 0 0 .442-1.122L6.635 9.98l-.92-1.65zm4.71-2.553a.831.831 0 0 0-1.456 0l-1.393 2.57 2.156 3.87c.345.617.373 1.287.171 1.874h3.647c.623 0 1.021-.654.728-1.196z" fill="currentColor"></path><circle cx="2.667" cy="2.333" fill="currentColor" r="2"></circle></svg>