<svg width="16" height="16" viewBox="0 0 16 16" fill="none" xmlns="http://www.w3.org/2000/svg"><path fill-rule="evenodd" clip-rule="evenodd" d="M7.701.737a.67.67 0 0 1 .597 0l6.666 3.333a.667.667 0 0 1 0 1.193L8.298 8.596a.67.67 0 0 1-.597 0L1.035 5.263a.667.667 0 0 1 0-1.193zm-4.877 3.93 5.175 2.587 5.176-2.587L8 2.079zM.737 7.702a.667.667 0 0 1 .894-.298l6.368 3.184 6.369-3.184a.667.667 0 1 1 .596 1.192L8.298 11.93a.67.67 0 0 1-.597 0L1.035 8.596a.667.667 0 0 1-.298-.894m0 3.333a.667.667 0 0 1 .894-.298l6.368 3.184 6.369-3.184a.667.667 0 1 1 .596 1.193l-6.666 3.333a.67.67 0 0 1-.597 0L1.035 11.93a.667.667 0 0 1-.298-.895" fill="currentColor"></path></svg>