<svg width="17" height="17" viewBox="0 0 17 17" fill="none" xmlns="http://www.w3.org/2000/svg">
<path d="M6.13532 15.6184V14.3357C4.74383 13.8648 3.60674 13.0276 2.72405 11.824C1.84137 10.6203 1.40002 9.24558 1.40002 7.69995C1.40002 6.72819 1.58374 5.81798 1.95117 4.96933C2.3186 4.12069 2.818 3.38068 3.44938 2.7493C4.08075 2.11793 4.82062 1.61853 5.669 1.2511C6.51751 0.883667 7.42099 0.699951 8.37944 0.699951C9.34228 0.699951 10.2503 0.883667 11.1035 1.2511C11.9565 1.61853 12.7008 2.11793 13.3365 2.7493C13.9721 3.38068 14.4749 4.12069 14.845 4.96933C15.215 5.81798 15.4 6.72819 15.4 7.69995C15.4 9.24091 14.9566 10.6089 14.0696 11.8038C13.1828 12.9986 12.0478 13.8357 10.6647 14.3152V15.6184C10.6647 15.7934 10.6055 15.9401 10.4871 16.0586C10.3686 16.1769 10.2219 16.236 10.0469 16.236C9.87174 16.236 9.72508 16.1769 9.60691 16.0586C9.48859 15.9401 9.42944 15.7934 9.42944 15.6184V14.6192C9.25526 14.6571 9.08239 14.68 8.91082 14.688C8.73925 14.696 8.56212 14.7 8.37944 14.7C8.20581 14.7 8.0365 14.6938 7.87152 14.6816C7.70654 14.6695 7.53957 14.6488 7.37061 14.6192V15.6184C7.37061 15.7934 7.31139 15.9401 7.19294 16.0586C7.07448 16.1769 6.92776 16.236 6.75276 16.236C6.57762 16.236 6.43097 16.1769 6.31279 16.0586C6.19448 15.9401 6.13532 15.7934 6.13532 15.6184ZM12.4765 11.8176C13.602 10.6921 14.1647 9.33329 14.1647 7.74113C14.1647 6.14897 13.602 4.79015 12.4765 3.66466C11.351 2.53917 9.99218 1.97642 8.40002 1.97642C6.80787 1.97642 5.44904 2.53917 4.32355 3.66466C3.19806 4.79015 2.63532 6.14897 2.63532 7.74113C2.63532 9.33329 3.19806 10.6921 4.32355 11.8176C5.44904 12.9431 6.80787 13.5058 8.40002 13.5058C9.99218 13.5058 11.351 12.9431 12.4765 11.8176ZM5.92944 5.88819H10.8706C11.0456 5.88819 11.1923 5.82896 11.3106 5.71051C11.429 5.59206 11.4883 5.44533 11.4883 5.27033C11.4883 5.0952 11.429 4.94854 11.3106 4.83036C11.1923 4.71205 11.0456 4.65289 10.8706 4.65289H5.92944C5.75444 4.65289 5.60778 4.71212 5.48947 4.83057C5.37101 4.94902 5.31179 5.09575 5.31179 5.27075C5.31179 5.44588 5.37101 5.59254 5.48947 5.71072C5.60778 5.82903 5.75444 5.88819 5.92944 5.88819Z" fill="currentColor"></path>
<path fill-rule="evenodd" clip-rule="evenodd" d="M9.41125 8.77438L8.67578 7.83429C8.53565 7.65517 8.26458 7.65517 8.12445 7.83429L7.38899 8.77438C7.14737 9.08307 6.99983 9.46756 7.00002 9.83926C7.00002 10.5444 7.65618 11.1569 8.40003 11.1569C9.14367 11.1569 9.80002 10.5444 9.80002 9.83922C9.80002 9.47414 9.65819 9.08989 9.41125 8.77438Z" fill="currentColor"></path>
</svg>