<svg width="24" height="24" viewBox="0 0 24 24" fill="none" xmlns="http://www.w3.org/2000/svg"><path fill-rule="evenodd" clip-rule="evenodd" d="M9.227 2.396a10 10 0 0 1 12.206 6.27 1 1 0 1 1-1.886.667A8 8 0 0 0 6.325 6.368L3.525 9H7a1 1 0 1 1 0 2H1a1 1 0 0 1-1-1V4a1 1 0 1 1 2 0v3.688L4.944 4.92a10 10 0 0 1 4.283-2.525ZM16 14a1 1 0 0 1 1-1h6a1 1 0 0 1 1 1v6a1 1 0 1 1-2 0v-3.69l-2.944 2.767a10 10 0 0 1-16.489-3.745 1 1 0 1 1 1.886-.667 8 8 0 0 0 13.222 2.965l2.8-2.631H17a1 1 0 0 1-1-1Z" fill="currentColor"></path></svg>