<svg width="16" height="16" viewBox="0 0 16 16" fill="none" xmlns="http://www.w3.org/2000/svg">
  <path fill-rule="evenodd" clip-rule="evenodd" d="M2.667 1.333c.368 0 .666.298.666.667v4.666a.667.667 0 1 1-1.333 0V2c0-.369.298-.667.667-.667m5.333 0c.368 0 .667.298.667.667v2.666H10A.667.667 0 1 1 10 6H6a.667.667 0 1 1 0-1.334h1.333V2c0-.369.299-.667.667-.667m5.333 0c.368 0 .667.298.667.667v6a.667.667 0 0 1-1.333 0V2c0-.369.298-.667.666-.667M8 7.333c.368 0 .667.298.667.667v6a.667.667 0 0 1-1.334 0V8c0-.369.299-.667.667-.667m-8 2c0-.368.298-.667.667-.667h4a.667.667 0 0 1 0 1.334H3.333v4A.667.667 0 1 1 2 14v-4H.667A.667.667 0 0 1 0 9.333m10.667 1.333c0-.368.298-.666.666-.666h4a.667.667 0 0 1 0 1.333H14V14a.667.667 0 0 1-1.333 0v-2.667h-1.334a.667.667 0 0 1-.666-.667" fill="currentColor"></path>
</svg>