<svg width="24" height="24" viewBox="0 0 24 24" fill="none" xmlns="http://www.w3.org/2000/svg">
<g filter="url(#filter0_d_13849_4393)">
<rect x="2" y="2" width="20" height="20" rx="10" fill="#FDFDFD" fill-opacity="0.8" shape-rendering="crispEdges"/>
<rect x="2.5" y="2.5" width="19" height="19" rx="9.5" stroke="#396BD1" shape-rendering="crispEdges"/>
<path d="M9.57813 13.5463C9.85308 13.5468 9.9911 13.8887 9.79688 14.0883L9.06934 14.8334C9.25603 15.2246 9.55008 15.5736 9.92773 15.8666C10.6148 16.3995 11.5493 16.7172 12.4893 16.7172C13.4023 16.7171 14.3306 16.3501 15.0264 15.7524C15.6317 15.2321 16.0273 14.569 16.1191 13.8627C16.1419 13.6894 16.2786 13.5463 16.4492 13.5463H17.0674C17.2379 13.5465 17.3778 13.6895 17.3633 13.8637C17.2666 15.0126 16.6516 16.0104 15.8213 16.7241C14.9161 17.5018 13.7097 17.9847 12.4893 17.9848C11.2954 17.9848 10.0948 17.5865 9.18066 16.8774C8.78168 16.5678 8.43163 16.1934 8.16309 15.7631L7.75977 16.1762C7.56492 16.3755 7.23242 16.2339 7.23242 15.9516V13.8637C7.23261 13.6889 7.37047 13.5465 7.54102 13.5463H9.57813Z" fill="#3F4144"/>
<path fill-rule="evenodd" clip-rule="evenodd" d="M8.62012 6.17328C8.89429 5.82635 9.42505 5.82635 9.69922 6.17328L11.1377 7.99359C11.6208 8.60464 11.8984 9.34904 11.8984 10.0561C11.8984 11.422 10.6141 12.6088 9.15918 12.6088C7.70395 12.6087 6.41992 11.4218 6.41992 10.0561C6.4196 9.33624 6.70895 8.59142 7.18164 7.99359L8.62012 6.17328ZM7.87988 8.46625C7.53093 8.93051 7.33178 9.49319 7.33203 10.0053L7.3418 10.1723C7.43712 11.0006 8.22673 11.7591 9.15918 11.7592C10.1538 11.7592 10.9863 10.8958 10.9863 10.0053C10.9863 9.50191 10.7956 8.94014 10.4395 8.46625L9.15918 6.76312L7.87988 8.46625Z" fill="#3F4144"/>
<path d="M12.1201 7.84027C13.3137 7.84039 14.5138 8.23872 15.4277 8.94769C15.8269 9.25739 16.1777 9.63246 16.4463 10.0629L16.8486 9.64984C17.0434 9.45069 17.3765 9.59154 17.377 9.87348V11.9614C17.377 12.1363 17.238 12.2786 17.0674 12.2787H15.0312C14.7558 12.2787 14.6179 11.9375 14.8125 11.7377L15.5391 10.9926C15.3524 10.6016 15.0591 10.2523 14.6816 9.95941C14.1142 9.51916 13.3772 9.22883 12.6084 9.14008C12.5022 8.69136 12.314 8.24888 12.0537 7.84125C12.0757 7.84093 12.0981 7.84027 12.1201 7.84027Z" fill="#3F4144"/>
</g>
<defs>
<filter id="filter0_d_13849_4393" x="0" y="0" width="24" height="24" filterUnits="userSpaceOnUse" color-interpolation-filters="sRGB">
<feFlood flood-opacity="0" result="BackgroundImageFix"/>
<feColorMatrix in="SourceAlpha" type="matrix" values="0 0 0 0 0 0 0 0 0 0 0 0 0 0 0 0 0 0 127 0" result="hardAlpha"/>
<feOffset/>
<feGaussianBlur stdDeviation="1"/>
<feComposite in2="hardAlpha" operator="out"/>
<feColorMatrix type="matrix" values="0 0 0 0 0.245833 0 0 0 0 0.245833 0 0 0 0 0.245833 0 0 0 0.16 0"/>
<feBlend mode="normal" in2="BackgroundImageFix" result="effect1_dropShadow_13849_4393"/>
<feBlend mode="normal" in="SourceGraphic" in2="effect1_dropShadow_13849_4393" result="shape"/>
</filter>
</defs>
</svg>
