<svg width="24" height="24" viewBox="0 0 24 24" fill="none" xmlns="http://www.w3.org/2000/svg">
<g filter="url(#filter0_d_13849_4387)">
<rect x="2" y="2" width="20" height="20" rx="10" fill="#FDFDFD" fill-opacity="0.8" shape-rendering="crispEdges"/>
<rect x="2.5" y="2.5" width="19" height="19" rx="9.5" stroke="#EC4A0A" shape-rendering="crispEdges"/>
<path fill-rule="evenodd" clip-rule="evenodd" d="M12 7C14.7614 7 17 9.23858 17 12C17 14.7614 14.7614 17 12 17C9.23858 17 7 14.7614 7 12C7 9.23858 9.23858 7 12 7ZM8.2793 13.875C8.93551 15.1746 10.2514 16.0838 11.7876 16.161V15.3732C10.703 15.3059 9.75814 14.7271 9.18913 13.875H8.2793ZM14.8109 13.875C14.2405 14.7292 13.2923 15.3083 12.2043 15.3732V16.161C13.7439 16.0866 15.0633 15.1769 15.7207 13.875H14.8109ZM12.2043 14.9549C13.0457 14.8975 13.7896 14.4901 14.2917 13.875H12.2043V14.9549ZM9.70833 13.875C10.209 14.488 10.9496 14.8946 11.7876 14.9541V13.875H9.70833ZM7.83903 12.2083C7.8606 12.6462 7.94964 13.0662 8.09619 13.4583H8.9515C8.81701 13.1775 8.7194 12.8755 8.66667 12.5583C8.88349 12.5402 9.06599 12.4013 9.14355 12.2083H7.83903ZM12.2043 13.4583H14.5757C14.689 13.2581 14.7803 13.0437 14.8451 12.8179C14.6338 12.6805 14.4798 12.4638 14.4243 12.2083H12.2043V13.4583ZM14.8573 12.2083C14.9346 12.4012 15.1166 12.5401 15.3333 12.5583C15.2806 12.8755 15.183 13.1775 15.0485 13.4583H15.9038C16.0504 13.0662 16.1394 12.6462 16.161 12.2083H14.8573ZM9.5765 12.2083C9.52076 12.4641 9.36586 12.6806 9.15413 12.8179C9.21884 13.0437 9.31019 13.2581 9.4235 13.4583H11.7876V12.2083H9.5765ZM8.09619 10.5417C7.94964 10.9338 7.8606 11.3538 7.83903 11.7917H9.14355C9.06602 11.5984 8.88356 11.4589 8.66667 11.4409C8.71943 11.124 8.81711 10.8223 8.9515 10.5417H8.09619ZM12.2043 11.7917H14.4243C14.4799 11.5361 14.6342 11.319 14.8459 11.1813C14.7812 10.9559 14.6904 10.7416 14.5773 10.5417H12.2043V11.7917ZM15.0485 10.5417C15.1829 10.8223 15.2806 11.124 15.3333 11.4409C15.1166 11.459 14.9346 11.5985 14.8573 11.7917H16.161C16.1394 11.3538 16.0504 10.9338 15.9038 10.5417H15.0485ZM9.42269 10.5417C9.30957 10.7416 9.2188 10.9559 9.15413 11.1813C9.36604 11.3189 9.5208 11.5359 9.5765 11.7917H11.7876V10.5417H9.42269ZM11.7876 7.83822C10.2514 7.91534 8.93551 8.82538 8.2793 10.125H9.18831C9.75735 9.27271 10.7028 8.69329 11.7876 8.62598V7.83822ZM12.2043 10.125H14.2917C13.7893 9.51006 13.0457 9.10166 12.2043 9.04427V10.125ZM12.2043 8.62598C13.2925 8.69086 14.2412 9.27056 14.8117 10.125H15.7207C15.0633 8.82309 13.7439 7.91254 12.2043 7.83822V8.62598ZM11.7876 9.04508C10.9496 9.10459 10.2091 9.51207 9.70833 10.125H11.7876V9.04508Z" fill="#3F4144"/>
</g>
<defs>
<filter id="filter0_d_13849_4387" x="0" y="0" width="24" height="24" filterUnits="userSpaceOnUse" color-interpolation-filters="sRGB">
<feFlood flood-opacity="0" result="BackgroundImageFix"/>
<feColorMatrix in="SourceAlpha" type="matrix" values="0 0 0 0 0 0 0 0 0 0 0 0 0 0 0 0 0 0 127 0" result="hardAlpha"/>
<feOffset/>
<feGaussianBlur stdDeviation="1"/>
<feComposite in2="hardAlpha" operator="out"/>
<feColorMatrix type="matrix" values="0 0 0 0 0.245833 0 0 0 0 0.245833 0 0 0 0 0.245833 0 0 0 0.16 0"/>
<feBlend mode="normal" in2="BackgroundImageFix" result="effect1_dropShadow_13849_4387"/>
<feBlend mode="normal" in="SourceGraphic" in2="effect1_dropShadow_13849_4387" result="shape"/>
</filter>
</defs>
</svg>
