<svg width="24" height="24" viewBox="0 0 24 24" fill="none" xmlns="http://www.w3.org/2000/svg">
<g filter="url(#filter0_d_13849_4381)">
<rect x="2" y="2" width="20" height="20" rx="10" fill="#FDFDFD" fill-opacity="0.8" shape-rendering="crispEdges"/>
<rect x="2.5" y="2.5" width="19" height="19" rx="9.5" stroke="#396BD1" shape-rendering="crispEdges"/>
<path d="M14.2375 14.1988C14.4392 14.1117 14.6758 14.1995 14.7656 14.3956C14.8441 14.5673 14.784 14.7646 14.6328 14.8698L14.5625 14.9094L14.5602 14.9101C14.5592 14.9105 14.5576 14.9111 14.5563 14.9116C14.5533 14.9129 14.5492 14.9151 14.5445 14.917C14.5352 14.9208 14.5223 14.926 14.5063 14.9322C14.4736 14.9448 14.4267 14.9622 14.3672 14.9823C14.2481 15.0226 14.0764 15.075 13.857 15.1267C13.4177 15.2303 12.7856 15.3319 12 15.3319C11.2144 15.3319 10.5823 15.2303 10.143 15.1267C9.92352 15.075 9.75187 15.0226 9.63281 14.9823C9.57328 14.9622 9.52644 14.9448 9.49375 14.9322C9.47766 14.9259 9.46483 14.9208 9.45547 14.917C9.45079 14.915 9.44669 14.9129 9.44375 14.9116C9.44234 14.9111 9.44083 14.9105 9.43984 14.9101L9.43828 14.9094L9.36719 14.8698C9.21599 14.7646 9.15592 14.5673 9.23438 14.3956C9.3241 14.1997 9.56012 14.1113 9.76172 14.198C9.76243 14.1983 9.76399 14.1989 9.76562 14.1995C9.77008 14.2014 9.77803 14.2044 9.78906 14.2087C9.81139 14.2173 9.84722 14.2304 9.89531 14.2467C9.99182 14.2793 10.1393 14.3243 10.332 14.3698C10.7176 14.4607 11.2857 14.5537 12 14.5537C12.7143 14.5537 13.2824 14.4607 13.668 14.3698C13.8607 14.3243 14.0082 14.2793 14.1047 14.2467C14.1527 14.2304 14.1886 14.2173 14.2109 14.2087C14.2219 14.2044 14.2299 14.2014 14.2344 14.1995C14.2355 14.1991 14.2368 14.1991 14.2375 14.1988Z" fill="#3F4144"/>
<path fill-rule="evenodd" clip-rule="evenodd" d="M11.475 7.74883C11.7419 7.417 12.258 7.41712 12.525 7.74883L13.9266 9.4907C14.3968 10.0752 14.6664 10.7873 14.6664 11.4636C14.6664 11.6152 14.6484 11.7643 14.6164 11.9097L14.9125 11.9675C15.714 12.1369 16.4124 12.3782 16.9383 12.6781C17.518 13.0086 18 13.4795 18 14.0916C17.9998 14.5233 17.7557 14.8868 17.4234 15.17C17.0904 15.4539 16.6316 15.6924 16.0992 15.8844C15.0309 16.2697 13.5812 16.5 12 16.5C10.4188 16.5 8.96915 16.2697 7.90078 15.8844C7.36836 15.6924 6.9096 15.4539 6.57656 15.17C6.24434 14.8868 6.00019 14.5233 6 14.0916C6 13.4795 6.48204 13.0086 7.06172 12.6781C7.65107 12.342 8.45715 12.0793 9.38203 11.909C9.35025 11.7639 9.33359 11.6148 9.33359 11.4636C9.3333 10.775 9.61405 10.0626 10.0742 9.4907L11.475 7.74883ZM14.3172 12.6317C13.8488 13.379 12.9637 13.9054 12 13.9054C11.0359 13.9054 10.1503 13.3792 9.68203 12.6317C9.6508 12.6463 9.61772 12.6587 9.58203 12.6651L9.25469 12.729C8.50897 12.8868 7.89698 13.1032 7.46563 13.3491C6.95158 13.6423 6.8 13.9111 6.8 14.0916C6.80019 14.2174 6.86982 14.3853 7.10391 14.5848C7.33752 14.784 7.69843 14.9815 8.17891 15.1548C9.13732 15.5004 10.4885 15.7218 12 15.7218C13.5115 15.7218 14.8627 15.5004 15.8211 15.1548C16.3016 14.9815 16.6625 14.784 16.8961 14.5848C17.1302 14.3853 17.1998 14.2174 17.2 14.0916C17.2 13.9111 17.0484 13.6423 16.5344 13.3491C16.103 13.1032 15.491 12.8868 14.7453 12.729L14.418 12.6651L14.3398 12.6431C14.332 12.64 14.3248 12.6352 14.3172 12.6317ZM10.5992 9.89045C10.2173 10.3651 9.99972 10.94 10 11.4636L10.0109 11.6338C10.1149 12.481 10.979 13.2571 12 13.2572C13.0887 13.2572 14 12.3741 14 11.4636C13.9999 10.949 13.7906 10.3749 13.4008 9.89045L12 8.14858L10.5992 9.89045Z" fill="#3F4144"/>
</g>
<defs>
<filter id="filter0_d_13849_4381" x="0" y="0" width="24" height="24" filterUnits="userSpaceOnUse" color-interpolation-filters="sRGB">
<feFlood flood-opacity="0" result="BackgroundImageFix"/>
<feColorMatrix in="SourceAlpha" type="matrix" values="0 0 0 0 0 0 0 0 0 0 0 0 0 0 0 0 0 0 127 0" result="hardAlpha"/>
<feOffset/>
<feGaussianBlur stdDeviation="1"/>
<feComposite in2="hardAlpha" operator="out"/>
<feColorMatrix type="matrix" values="0 0 0 0 0.245833 0 0 0 0 0.245833 0 0 0 0 0.245833 0 0 0 0.16 0"/>
<feBlend mode="normal" in2="BackgroundImageFix" result="effect1_dropShadow_13849_4381"/>
<feBlend mode="normal" in="SourceGraphic" in2="effect1_dropShadow_13849_4381" result="shape"/>
</filter>
</defs>
</svg>
