<svg width="20" height="20" viewBox="0 0 20 20" fill="none" xmlns="http://www.w3.org/2000/svg">
<path fill-rule="evenodd" clip-rule="evenodd" d="M10 1.75C5.44365 1.75 1.75 5.44365 1.75 10C1.75 14.5563 5.44365 18.25 10 18.25C14.5563 18.25 18.25 14.5563 18.25 10C18.25 5.44365 14.5563 1.75 10 1.75ZM13 8C13 6.34315 11.6569 5 10 5C8.34315 5 7 6.34315 7 8C7 9.48647 8.08118 10.7199 9.5 10.958V14.8008C9.5 15.0769 9.72386 15.3008 10 15.3008C10.2761 15.3008 10.5 15.0769 10.5 14.8008V10.958C11.9188 10.7199 13 9.48647 13 8Z" fill="#2A2B2D"/>
<path d="M10 5C11.6569 5 13 6.34315 13 8C13 9.48647 11.9188 10.7199 10.5 10.958V14.8008C10.5 15.0769 10.2761 15.3008 10 15.3008C9.72386 15.3008 9.5 15.0769 9.5 14.8008V10.958C8.08118 10.7199 7 9.48647 7 8C7 6.34315 8.34315 5 10 5Z" fill="#FDFDFD"/>
<path fill-rule="evenodd" clip-rule="evenodd" d="M10 0C15.5228 0 20 4.47715 20 10C20 15.5228 15.5228 20 10 20C4.47715 20 0 15.5228 0 10C0 4.47715 4.47715 0 10 0ZM1.75 10C1.75 5.44365 5.44365 1.75 10 1.75C14.5563 1.75 18.25 5.44365 18.25 10C18.25 14.5563 14.5563 18.25 10 18.25C5.44365 18.25 1.75 14.5563 1.75 10Z" fill="#FDFDFD"/>
</svg>
