<svg width="24" height="24" viewBox="0 0 24 24" fill="none" xmlns="http://www.w3.org/2000/svg">
<g filter="url(#filter0_d_13849_4385)">
<rect x="2" y="2" width="20" height="20" rx="10" fill="#FDFDFD" fill-opacity="0.8" shape-rendering="crispEdges"/>
<rect x="2.5" y="2.5" width="19" height="19" rx="9.5" stroke="#396BD1" shape-rendering="crispEdges"/>
<path d="M13.7905 14.8502C13.8895 14.771 14.0291 14.7711 14.1281 14.8503C14.6396 15.2595 15.2689 15.483 15.9186 15.4821H16.4084C16.679 15.4821 16.8983 15.71 16.8983 15.991C16.8983 16.2721 16.679 16.5 16.4084 16.5H15.9186C15.278 16.5011 14.6477 16.3382 14.0832 16.0268C14.0058 15.9841 13.9128 15.9841 13.8354 16.0268C13.2709 16.3383 12.6406 16.5012 12 16.5C11.3594 16.5011 10.7291 16.3382 10.1646 16.0268C10.0872 15.9841 9.9942 15.9841 9.91679 16.0268C9.35228 16.3383 8.722 16.5012 8.08138 16.5H7.59156C7.32103 16.5 7.10173 16.2721 7.10173 15.991C7.10173 15.71 7.32103 15.4821 7.59156 15.4821H8.08138C8.75526 15.4821 9.37656 15.2464 9.87185 14.8502C9.97086 14.771 10.1105 14.7711 10.2095 14.8503C10.721 15.2595 11.3503 15.483 12 15.4821C12.6739 15.4821 13.2952 15.2464 13.7905 14.8502ZM12.2807 6.59182L12.3297 6.63253L16.9193 10.9678C17.085 11.1242 16.9785 11.4105 16.7546 11.4105H15.9186V14.2145C15.9186 14.3525 15.8067 14.4655 15.6693 14.4535C15.4782 14.4368 15.2891 14.4007 15.1047 14.3457C15.0042 14.3157 14.939 14.2209 14.939 14.116V10.4725L12 7.69623L9.06104 10.472L9.06151 14.1156C9.06152 14.2205 8.99642 14.3152 8.896 14.3453C8.67851 14.4104 8.4543 14.4492 8.22784 14.4606Lnan nanL8.22784 14.4606C8.14754 14.4626 8.08138 14.398 8.08138 14.3177V11.4105H7.24541C7.02155 11.4105 6.91502 11.1242 7.08066 10.9678L11.6703 6.63253C11.7525 6.55481 11.8577 6.50845 11.9686 6.50105C12.0796 6.49365 12.1896 6.52566 12.2807 6.59182Z" fill="#3F4144"/>
</g>
<defs>
<filter id="filter0_d_13849_4385" x="0" y="0" width="24" height="24" filterUnits="userSpaceOnUse" color-interpolation-filters="sRGB">
<feFlood flood-opacity="0" result="BackgroundImageFix"/>
<feColorMatrix in="SourceAlpha" type="matrix" values="0 0 0 0 0 0 0 0 0 0 0 0 0 0 0 0 0 0 127 0" result="hardAlpha"/>
<feOffset/>
<feGaussianBlur stdDeviation="1"/>
<feComposite in2="hardAlpha" operator="out"/>
<feColorMatrix type="matrix" values="0 0 0 0 0.245833 0 0 0 0 0.245833 0 0 0 0 0.245833 0 0 0 0.16 0"/>
<feBlend mode="normal" in2="BackgroundImageFix" result="effect1_dropShadow_13849_4385"/>
<feBlend mode="normal" in="SourceGraphic" in2="effect1_dropShadow_13849_4385" result="shape"/>
</filter>
</defs>
</svg>
