<svg width="24" height="24" viewBox="0 0 24 24" fill="none" xmlns="http://www.w3.org/2000/svg">
<g filter="url(#filter0_d_13849_4395)">
<rect x="2" y="2" width="20" height="20" rx="10" fill="#FDFDFD" fill-opacity="0.8" shape-rendering="crispEdges"/>
<rect x="2.5" y="2.5" width="19" height="19" rx="9.5" stroke="#EC4A0A" shape-rendering="crispEdges"/>
<path d="M10.8232 10.666C11.7232 10.666 12.4531 11.3959 12.4531 12.2959H15.7119L15.8779 12.3047C16.645 12.3825 17.2552 12.9917 17.333 13.7588L17.3418 13.9248V16.3701L17.333 16.5361C17.2497 17.358 16.5557 17.999 15.7119 17.999H8.37988L8.21289 17.9902C7.44596 17.9123 6.8366 17.3032 6.75879 16.5361L6.75 16.3701V12.2959C6.75 11.3959 7.47995 10.666 8.37988 10.666H10.8232ZM8.37988 11.4805C7.92992 11.4805 7.56445 11.8459 7.56445 12.2959V16.3701C7.56467 16.8199 7.93005 17.1846 8.37988 17.1846H11.6387V12.2959C11.6387 11.8741 11.318 11.5262 10.9072 11.4844L10.8232 11.4805H8.37988ZM12.4531 17.1846H15.7119C16.1617 17.1846 16.5262 16.8199 16.5264 16.3701V13.9248C16.5261 13.475 16.1617 13.1104 15.7119 13.1104H12.4531V17.1846ZM8.99023 15.5547C9.10273 15.5547 9.19434 15.6463 9.19434 15.7588V16.166C9.19434 16.2785 9.10273 16.3701 8.99023 16.3701H8.58301C8.47058 16.37 8.37988 16.2785 8.37988 16.166V15.7588C8.37988 15.6463 8.47058 15.5548 8.58301 15.5547H8.99023ZM10.6201 15.5547C10.7325 15.5548 10.8232 15.6463 10.8232 15.7588V16.166C10.8232 16.2785 10.7325 16.37 10.6201 16.3701H10.2129C10.1004 16.3701 10.0088 16.2785 10.0088 16.166V15.7588C10.0088 15.6463 10.1004 15.5547 10.2129 15.5547H10.6201ZM13.8789 15.5547C13.9914 15.5547 14.083 15.6463 14.083 15.7588V16.166C14.083 16.2785 13.9914 16.3701 13.8789 16.3701H13.4717C13.3592 16.3701 13.2676 16.2785 13.2676 16.166V15.7588C13.2676 15.6463 13.3592 15.5547 13.4717 15.5547H13.8789ZM15.5088 15.5547C15.6211 15.5549 15.7119 15.6464 15.7119 15.7588V16.166C15.7119 16.2784 15.6211 16.3699 15.5088 16.3701H15.1006C14.9883 16.3699 14.8975 16.2784 14.8975 16.166V15.7588C14.8975 15.6464 14.9883 15.5549 15.1006 15.5547H15.5088ZM8.99023 13.9248C9.1027 13.9248 9.1943 14.0164 9.19434 14.1289V14.5361C9.19434 14.6486 9.10273 14.7402 8.99023 14.7402H8.58301C8.47058 14.7402 8.37988 14.6486 8.37988 14.5361V14.1289C8.37992 14.0165 8.4706 13.9249 8.58301 13.9248H8.99023ZM10.6201 13.9248C10.7325 13.9249 10.8232 14.0165 10.8232 14.1289V14.5361C10.8232 14.6486 10.7325 14.7402 10.6201 14.7402H10.2129C10.1004 14.7402 10.0088 14.6486 10.0088 14.5361V14.1289C10.0088 14.0164 10.1004 13.9248 10.2129 13.9248H10.6201ZM13.8789 13.9248C13.9914 13.9248 14.083 14.0164 14.083 14.1289V14.5361C14.083 14.6486 13.9914 14.7402 13.8789 14.7402H13.4717C13.3592 14.7402 13.2676 14.6486 13.2676 14.5361V14.1289C13.2676 14.0164 13.3592 13.9248 13.4717 13.9248H13.8789ZM15.5088 13.9248C15.6211 13.925 15.7119 14.0166 15.7119 14.1289V14.5361C15.7119 14.6485 15.6211 14.74 15.5088 14.7402H15.1006C14.9883 14.74 14.8975 14.6485 14.8975 14.5361V14.1289C14.8975 14.0166 14.9883 13.925 15.1006 13.9248H15.5088ZM8.99023 12.2959C9.10262 12.2959 9.19416 12.3867 9.19434 12.499V12.9072C9.19408 13.0195 9.10257 13.1104 8.99023 13.1104H8.58301C8.47074 13.1103 8.38014 13.0195 8.37988 12.9072V12.499C8.38006 12.3867 8.47069 12.296 8.58301 12.2959H8.99023ZM10.6201 12.2959C10.7324 12.296 10.8231 12.3867 10.8232 12.499V12.9072C10.823 13.0195 10.7324 13.1103 10.6201 13.1104H10.2129C10.1006 13.1104 10.009 13.0195 10.0088 12.9072V12.499C10.009 12.3867 10.1005 12.2959 10.2129 12.2959H10.6201ZM14.6104 7.16016C14.7776 6.94655 15.1013 6.94654 15.2686 7.16016L16.1465 8.28223C16.4413 8.65887 16.6104 9.1179 16.6104 9.55371C16.6103 10.3955 15.827 11.1268 14.9395 11.127C14.0516 11.1268 13.2676 10.3954 13.2676 9.55371C13.2674 9.11006 13.4441 8.6507 13.7324 8.28223L14.6104 7.16016ZM14.2549 8.64355C14.0684 8.89923 13.9618 9.20921 13.9619 9.49121C13.9621 9.98136 14.4069 10.4566 14.9385 10.457C15.4702 10.457 15.9158 9.98158 15.916 9.49121C15.916 9.21396 15.8135 8.90457 15.623 8.64355L14.9395 7.70508L14.2549 8.64355Z" fill="#3F4144"/>
</g>
<defs>
<filter id="filter0_d_13849_4395" x="0" y="0" width="24" height="24" filterUnits="userSpaceOnUse" color-interpolation-filters="sRGB">
<feFlood flood-opacity="0" result="BackgroundImageFix"/>
<feColorMatrix in="SourceAlpha" type="matrix" values="0 0 0 0 0 0 0 0 0 0 0 0 0 0 0 0 0 0 127 0" result="hardAlpha"/>
<feOffset/>
<feGaussianBlur stdDeviation="1"/>
<feComposite in2="hardAlpha" operator="out"/>
<feColorMatrix type="matrix" values="0 0 0 0 0.245833 0 0 0 0 0.245833 0 0 0 0 0.245833 0 0 0 0.16 0"/>
<feBlend mode="normal" in2="BackgroundImageFix" result="effect1_dropShadow_13849_4395"/>
<feBlend mode="normal" in="SourceGraphic" in2="effect1_dropShadow_13849_4395" result="shape"/>
</filter>
</defs>
</svg>
