<svg width="16" height="16" viewBox="0 0 16 16" fill="none" xmlns="http://www.w3.org/2000/svg">
<path fill-rule="evenodd" clip-rule="evenodd" d="M2.0367 7.33329H4.00008C4.36827 7.33329 4.66675 7.63177 4.66675 7.99996C4.66675 8.36815 4.36827 8.66663 4.00008 8.66663H2.0367C2.34413 11.4477 4.55234 13.6559 7.33341 13.9633V12C7.33341 11.6318 7.63189 11.3333 8.00008 11.3333C8.36827 11.3333 8.66675 11.6318 8.66675 12V13.9633C11.4478 13.6559 13.656 11.4477 13.9635 8.66663H12.0001C11.6319 8.66663 11.3334 8.36815 11.3334 7.99996C11.3334 7.63177 11.6319 7.33329 12.0001 7.33329H13.9635C13.656 4.55222 11.4478 2.34401 8.66675 2.03658V3.99996C8.66675 4.36815 8.36827 4.66663 8.00008 4.66663C7.63189 4.66663 7.33341 4.36815 7.33341 3.99996V2.03658C4.55234 2.34401 2.34413 4.55222 2.0367 7.33329ZM0.666748 7.99996C0.666748 3.94987 3.94999 0.666626 8.00008 0.666626C12.0502 0.666626 15.3334 3.94987 15.3334 7.99996C15.3334 12.05 12.0502 15.3333 8.00008 15.3333C3.94999 15.3333 0.666748 12.05 0.666748 7.99996Z" fill="#2A2B2D"/>
</svg>
