<svg width="20" height="20" viewBox="0 0 20 20" fill="none" xmlns="http://www.w3.org/2000/svg">
<path fill-rule="evenodd" clip-rule="evenodd" d="M16.6667 2.91667H9.16671C8.70647 2.91667 8.33337 3.28976 8.33337 3.75V5.41667V17.0833H16.6667C17.1269 17.0833 17.5 16.7102 17.5 16.25V3.75C17.5 3.28976 17.1269 2.91667 16.6667 2.91667ZM6.66671 3.75V5.41667H3.33337C1.95266 5.41667 0.833374 6.53595 0.833374 7.91667V16.25C0.833374 17.6307 1.95266 18.75 3.33337 18.75H6.66671H8.33337H16.6667C18.0474 18.75 19.1667 17.6307 19.1667 16.25V3.75C19.1667 2.36929 18.0474 1.25 16.6667 1.25H9.16671C7.78599 1.25 6.66671 2.36929 6.66671 3.75ZM3.33337 7.08333H6.66671V17.0833H3.33337C2.87314 17.0833 2.50004 16.7102 2.50004 16.25V7.91667C2.50004 7.45643 2.87314 7.08333 3.33337 7.08333ZM3.33337 9.58333C3.33337 9.1231 3.70647 8.75 4.16671 8.75H5.00004C5.46028 8.75 5.83337 9.1231 5.83337 9.58333V10.4167C5.83337 10.8769 5.46028 11.25 5.00004 11.25H4.16671C3.70647 11.25 3.33337 10.8769 3.33337 10.4167V9.58333ZM3.33337 13.75C3.33337 13.2898 3.70647 12.9167 4.16671 12.9167H5.00004C5.46028 12.9167 5.83337 13.2898 5.83337 13.75V14.5833C5.83337 15.0436 5.46028 15.4167 5.00004 15.4167H4.16671C3.70647 15.4167 3.33337 15.0436 3.33337 14.5833V13.75ZM10 5.41667C10 4.95643 10.3731 4.58333 10.8334 4.58333H11.6667C12.1269 4.58333 12.5 4.95643 12.5 5.41667V6.25C12.5 6.71024 12.1269 7.08333 11.6667 7.08333H10.8334C10.3731 7.08333 10 6.71024 10 6.25V5.41667ZM10.8334 8.75C10.3731 8.75 10 9.1231 10 9.58333V10.4167C10 10.8769 10.3731 11.25 10.8334 11.25H11.6667C12.1269 11.25 12.5 10.8769 12.5 10.4167V9.58333C12.5 9.1231 12.1269 8.75 11.6667 8.75H10.8334ZM10 13.75C10 13.2898 10.3731 12.9167 10.8334 12.9167H11.6667C12.1269 12.9167 12.5 13.2898 12.5 13.75V14.5833C12.5 15.0436 12.1269 15.4167 11.6667 15.4167H10.8334C10.3731 15.4167 10 15.0436 10 14.5833V13.75ZM14.1667 4.58333C13.7065 4.58333 13.3334 4.95643 13.3334 5.41667V6.25C13.3334 6.71024 13.7065 7.08333 14.1667 7.08333H15C15.4603 7.08333 15.8334 6.71024 15.8334 6.25V5.41667C15.8334 4.95643 15.4603 4.58333 15 4.58333H14.1667ZM13.3334 9.58333C13.3334 9.1231 13.7065 8.75 14.1667 8.75H15C15.4603 8.75 15.8334 9.1231 15.8334 9.58333V10.4167C15.8334 10.8769 15.4603 11.25 15 11.25H14.1667C13.7065 11.25 13.3334 10.8769 13.3334 10.4167V9.58333ZM14.1667 12.9167C13.7065 12.9167 13.3334 13.2898 13.3334 13.75V14.5833C13.3334 15.0436 13.7065 15.4167 14.1667 15.4167H15C15.4603 15.4167 15.8334 15.0436 15.8334 14.5833V13.75C15.8334 13.2898 15.4603 12.9167 15 12.9167H14.1667Z" fill="#2A2B2D"/>
</svg>
