<svg width="42" height="42" viewBox="0 0 42 42" fill="none" xmlns="http://www.w3.org/2000/svg">
<g filter="url(#filter0_dd_2460_176530)">
<rect x="3.5" y="2.5" width="35" height="35" rx="5.5" fill="#FDFDFD"/>
<rect x="3.5" y="2.5" width="35" height="35" rx="5.5" stroke="#C6C7CC"/>
<path d="M19.1381 17.1953C19.3984 17.4556 19.3984 17.8777 19.1381 18.1381C18.8777 18.3984 18.4556 18.3984 18.1953 18.1381L16.3333 16.2761V17.3333C16.3333 17.7015 16.0349 18 15.6667 18C15.2985 18 15 17.7015 15 17.3333V15.3333C15 14.597 15.597 14 16.3333 14H18.3333C18.7015 14 19 14.2985 19 14.6667C19 15.0349 18.7015 15.3333 18.3333 15.3333H17.2761L19.1381 17.1953Z" fill="#55575B"/>
<path d="M19.1381 21.8619C19.3984 22.1223 19.3984 22.5444 19.1381 22.8047L17.2761 24.6667H18.3333C18.7015 24.6667 19 24.9651 19 25.3333C19 25.7015 18.7015 26 18.3333 26H16.3333C15.597 26 15 25.403 15 24.6667V22.6667C15 22.2985 15.2985 22 15.6667 22C16.0349 22 16.3333 22.2985 16.3333 22.6667V23.7239L18.1953 21.8619C18.4556 21.6016 18.8777 21.6016 19.1381 21.8619Z" fill="#55575B"/>
<path d="M23.1953 21.8619C22.9349 22.1223 22.9349 22.5444 23.1953 22.8047L25.0572 24.6667H24C23.6318 24.6667 23.3333 24.9651 23.3333 25.3333C23.3333 25.7015 23.6318 26 24 26H26C26.7364 26 27.3333 25.403 27.3333 24.6667V22.6667C27.3333 22.2985 27.0349 22 26.6667 22C26.2985 22 26 22.2985 26 22.6667V23.7239L24.1381 21.8619C23.8777 21.6016 23.4556 21.6016 23.1953 21.8619Z" fill="#55575B"/>
<path d="M23.1953 18.1381C22.9349 17.8777 22.9349 17.4556 23.1953 17.1953L25.0572 15.3333H24C23.6318 15.3333 23.3333 15.0349 23.3333 14.6667C23.3333 14.2985 23.6318 14 24 14H26C26.7364 14 27.3333 14.597 27.3333 15.3333V17.3333C27.3333 17.7015 27.0349 18 26.6667 18C26.2985 18 26 17.7015 26 17.3333V16.2761L24.1381 18.1381C23.8777 18.3984 23.4556 18.3984 23.1953 18.1381Z" fill="#55575B"/>
</g>
<defs>
<filter id="filter0_dd_2460_176530" x="0" y="0" width="42" height="42" filterUnits="userSpaceOnUse" color-interpolation-filters="sRGB">
<feFlood flood-opacity="0" result="BackgroundImageFix"/>
<feColorMatrix in="SourceAlpha" type="matrix" values="0 0 0 0 0 0 0 0 0 0 0 0 0 0 0 0 0 0 127 0" result="hardAlpha"/>
<feOffset dy="1"/>
<feGaussianBlur stdDeviation="1"/>
<feColorMatrix type="matrix" values="0 0 0 0 0.0627451 0 0 0 0 0.0941176 0 0 0 0 0.156863 0 0 0 0.06 0"/>
<feBlend mode="normal" in2="BackgroundImageFix" result="effect1_dropShadow_2460_176530"/>
<feColorMatrix in="SourceAlpha" type="matrix" values="0 0 0 0 0 0 0 0 0 0 0 0 0 0 0 0 0 0 127 0" result="hardAlpha"/>
<feOffset dy="1"/>
<feGaussianBlur stdDeviation="1.5"/>
<feColorMatrix type="matrix" values="0 0 0 0 0.0627451 0 0 0 0 0.0941176 0 0 0 0 0.156863 0 0 0 0.1 0"/>
<feBlend mode="normal" in2="effect1_dropShadow_2460_176530" result="effect2_dropShadow_2460_176530"/>
<feBlend mode="normal" in="SourceGraphic" in2="effect2_dropShadow_2460_176530" result="shape"/>
</filter>
</defs>
</svg>
