<svg width="42" height="42" viewBox="0 0 42 42" fill="none" xmlns="http://www.w3.org/2000/svg">
<g filter="url(#filter0_dd_2460_176525)">
<rect x="3.5" y="2.5" width="35" height="35" rx="5.5" fill="#FDFDFD"/>
<rect x="3.5" y="2.5" width="35" height="35" rx="5.5" stroke="#C6C7CC"/>
<path fill-rule="evenodd" clip-rule="evenodd" d="M20.3334 14.6667C17.756 14.6667 15.6667 16.756 15.6667 19.3334C15.6667 21.9107 17.756 24 20.3334 24C21.5907 24 22.7318 23.5028 23.571 22.6943C23.5885 22.6715 23.6077 22.6495 23.6286 22.6286C23.6495 22.6077 23.6715 22.5885 23.6943 22.571C24.5028 21.7318 25 20.5907 25 19.3334C25 16.756 22.9107 14.6667 20.3334 14.6667ZM25.0213 23.0785C25.8424 22.0521 26.3334 20.75 26.3334 19.3334C26.3334 16.0197 23.6471 13.3334 20.3334 13.3334C17.0197 13.3334 14.3334 16.0197 14.3334 19.3334C14.3334 22.6471 17.0197 25.3334 20.3334 25.3334C21.75 25.3334 23.0521 24.8424 24.0785 24.0213L26.5286 26.4714C26.789 26.7318 27.2111 26.7318 27.4714 26.4714C27.7318 26.2111 27.7318 25.789 27.4714 25.5286L25.0213 23.0785ZM17.6667 19.3334C17.6667 18.9652 17.9652 18.6667 18.3334 18.6667H22.3334C22.7016 18.6667 23 18.9652 23 19.3334C23 19.7016 22.7016 20 22.3334 20H18.3334C17.9652 20 17.6667 19.7016 17.6667 19.3334Z" fill="#55575B"/>
</g>
<defs>
<filter id="filter0_dd_2460_176525" x="0" y="0" width="42" height="42" filterUnits="userSpaceOnUse" color-interpolation-filters="sRGB">
<feFlood flood-opacity="0" result="BackgroundImageFix"/>
<feColorMatrix in="SourceAlpha" type="matrix" values="0 0 0 0 0 0 0 0 0 0 0 0 0 0 0 0 0 0 127 0" result="hardAlpha"/>
<feOffset dy="1"/>
<feGaussianBlur stdDeviation="1"/>
<feColorMatrix type="matrix" values="0 0 0 0 0.0627451 0 0 0 0 0.0941176 0 0 0 0 0.156863 0 0 0 0.06 0"/>
<feBlend mode="normal" in2="BackgroundImageFix" result="effect1_dropShadow_2460_176525"/>
<feColorMatrix in="SourceAlpha" type="matrix" values="0 0 0 0 0 0 0 0 0 0 0 0 0 0 0 0 0 0 127 0" result="hardAlpha"/>
<feOffset dy="1"/>
<feGaussianBlur stdDeviation="1.5"/>
<feColorMatrix type="matrix" values="0 0 0 0 0.0627451 0 0 0 0 0.0941176 0 0 0 0 0.156863 0 0 0 0.1 0"/>
<feBlend mode="normal" in2="effect1_dropShadow_2460_176525" result="effect2_dropShadow_2460_176525"/>
<feBlend mode="normal" in="SourceGraphic" in2="effect2_dropShadow_2460_176525" result="shape"/>
</filter>
</defs>
</svg>
