<svg width="16" height="16" viewBox="0 0 16 16" fill="none" xmlns="http://www.w3.org/2000/svg">
<path fill-rule="evenodd" clip-rule="evenodd" d="M2.03646 7.33366H4.6999C4.84937 5.49153 5.46591 3.72327 6.48364 2.19354C4.11238 2.81097 2.31184 4.84248 2.03646 7.33366ZM7.99984 2.36752C6.88672 3.80162 6.2057 5.52488 6.03823 7.33366H9.96144C9.79398 5.52488 9.11295 3.80162 7.99984 2.36752ZM9.96144 8.66699C9.79398 10.4758 9.11295 12.199 7.99984 13.6331C6.88672 12.199 6.2057 10.4758 6.03823 8.66699H9.96144ZM4.6999 8.66699H2.03646C2.31184 11.1582 4.11238 13.1897 6.48364 13.8071C5.4659 12.2774 4.84937 10.5091 4.6999 8.66699ZM9.51603 13.8071C10.5338 12.2774 11.1503 10.5091 11.2998 8.66699H13.9632C13.6878 11.1582 11.8873 13.1897 9.51603 13.8071ZM13.9632 7.33366H11.2998C11.1503 5.49153 10.5338 3.72327 9.51603 2.19354C11.8873 2.81097 13.6878 4.84248 13.9632 7.33366ZM0.666504 8.00033C0.666504 3.95024 3.94975 0.666992 7.99984 0.666992C12.0499 0.666992 15.3332 3.95024 15.3332 8.00033C15.3332 12.0504 12.0499 15.3337 7.99984 15.3337C3.94975 15.3337 0.666504 12.0504 0.666504 8.00033Z" fill="#96979F"/>
</svg>
