<svg width="24" height="24" viewBox="0 0 24 24" fill="none" xmlns="http://www.w3.org/2000/svg">
<g filter="url(#filter0_d_13849_4376)">
<rect x="2" y="2" width="20" height="20" rx="10" fill="#FDFDFD" fill-opacity="0.8" shape-rendering="crispEdges"/>
<rect x="2.5" y="2.5" width="19" height="19" rx="9.5" stroke="#EC4A0A" shape-rendering="crispEdges"/>
<path d="M8.85992 9.32551C9.63058 9.32551 10.2559 9.94999 10.2559 10.7206V12.885C10.2561 13.1416 10.464 13.3496 10.7206 13.3498H13.047C13.3036 13.3496 13.5115 13.1416 13.5117 12.885V10.7206C13.5117 9.95012 14.1364 9.32571 14.9069 9.32551H16.5352L16.6283 9.33441C16.8404 9.37769 17 9.56542 17 9.79028C16.9999 10.0151 16.8404 10.2029 16.6283 10.2462L16.5352 10.2551H14.9069C14.6502 10.2553 14.4421 10.4639 14.4421 10.7206V15.3717C14.442 16.1422 13.8168 16.7676 13.0462 16.7676H10.7206C9.95023 16.7674 9.32559 16.1421 9.32551 15.3717V10.7206C9.32551 10.4638 9.1168 10.2551 8.85992 10.2551H7.46478C7.20811 10.2549 7.00009 10.047 7 9.79028C7 9.53352 7.20806 9.3257 7.46478 9.32551H8.85992Z" fill="#3F4144"/>
<path d="M16.2551 7.00891C16.4669 7.05235 16.6259 7.24007 16.6259 7.46478C16.6259 7.68949 16.4669 7.87721 16.2551 7.92065L16.1611 7.92955H12.9053C12.6484 7.92955 12.4397 8.13826 12.4397 8.39514V11.651C12.4397 11.9079 12.2318 12.1158 11.9749 12.1158C11.718 12.1158 11.5101 11.9079 11.5101 11.651V8.39514C11.5101 7.62448 12.1346 7 12.9053 7H16.1611L16.2551 7.00891Z" fill="#3F4144"/>
</g>
<defs>
<filter id="filter0_d_13849_4376" x="0" y="0" width="24" height="24" filterUnits="userSpaceOnUse" color-interpolation-filters="sRGB">
<feFlood flood-opacity="0" result="BackgroundImageFix"/>
<feColorMatrix in="SourceAlpha" type="matrix" values="0 0 0 0 0 0 0 0 0 0 0 0 0 0 0 0 0 0 127 0" result="hardAlpha"/>
<feOffset/>
<feGaussianBlur stdDeviation="1"/>
<feComposite in2="hardAlpha" operator="out"/>
<feColorMatrix type="matrix" values="0 0 0 0 0.245833 0 0 0 0 0.245833 0 0 0 0 0.245833 0 0 0 0.16 0"/>
<feBlend mode="normal" in2="BackgroundImageFix" result="effect1_dropShadow_13849_4376"/>
<feBlend mode="normal" in="SourceGraphic" in2="effect1_dropShadow_13849_4376" result="shape"/>
</filter>
</defs>
</svg>
