<svg width="24" height="24" viewBox="0 0 24 24" fill="none" xmlns="http://www.w3.org/2000/svg">
<g filter="url(#filter0_d_13849_4389)">
<rect x="2" y="2" width="20" height="20" rx="10" fill="#FDFDFD" fill-opacity="0.8" shape-rendering="crispEdges"/>
<rect x="2.5" y="2.5" width="19" height="19" rx="9.5" stroke="#396BD1" shape-rendering="crispEdges"/>
<path fill-rule="evenodd" clip-rule="evenodd" d="M10.3677 7.01929C10.9589 6.95909 11.5559 7.04026 12.1096 7.25609C12.6633 7.47193 13.1577 7.81627 13.5522 8.26071C13.8742 8.62349 14.122 9.04449 14.2831 9.49988H14.5005C15.0743 9.50056 15.6305 9.69861 16.0755 10.0608C16.5206 10.423 16.8275 10.9273 16.9448 11.489C17.0621 12.0507 16.9825 12.6356 16.7195 13.1457C16.4566 13.6557 16.0261 14.0597 15.5005 14.2899C15.2897 14.3822 15.044 14.2862 14.9517 14.0754C14.8594 13.8646 14.9554 13.6189 15.1662 13.5265C15.5166 13.3731 15.8036 13.1037 15.9789 12.7637C16.1542 12.4237 16.2072 12.0337 16.1291 11.6593C16.0509 11.2848 15.8463 10.9486 15.5495 10.7072C15.2529 10.4657 14.8822 10.3337 14.4997 10.3332C14.4996 10.3332 14.4997 10.3332 14.4997 10.3332H13.975C13.785 10.3332 13.6191 10.2047 13.5716 10.0207C13.456 9.57321 13.2357 9.15956 12.9289 8.81389C12.6221 8.46821 12.2375 8.20039 11.8069 8.03252C11.3763 7.86464 10.9119 7.80152 10.4521 7.84834C9.99227 7.89516 9.55016 8.05059 9.1622 8.30182C8.77424 8.55305 8.45154 8.89288 8.2207 9.29331C7.98986 9.69374 7.85749 10.1433 7.8345 10.6049C7.81151 11.0665 7.89856 11.527 8.08847 11.9484C8.27838 12.3698 8.56571 12.74 8.92679 13.0285C9.10656 13.1722 9.13584 13.4344 8.99219 13.6142C8.84853 13.7939 8.58634 13.8232 8.40657 13.6796C7.94233 13.3086 7.5729 12.8326 7.32873 12.2908C7.08456 11.749 6.97264 11.157 7.0022 10.5635C7.03176 9.96995 7.20195 9.39195 7.49874 8.87711C7.79554 8.36228 8.21044 7.92535 8.70924 7.60234C9.20804 7.27933 9.77647 7.07949 10.3677 7.01929ZM10.3333 11.9999C10.5635 11.9999 10.75 12.1864 10.75 12.4165V15.7499C10.75 15.98 10.5635 16.1665 10.3333 16.1665C10.1032 16.1665 9.91668 15.98 9.91668 15.7499V12.4165C9.91668 12.1864 10.1032 11.9999 10.3333 11.9999ZM13.6667 11.9999C13.8968 11.9999 14.0833 12.1864 14.0833 12.4165V15.7499C14.0833 15.98 13.8968 16.1665 13.6667 16.1665C13.4366 16.1665 13.25 15.98 13.25 15.7499V12.4165C13.25 12.1864 13.4366 11.9999 13.6667 11.9999ZM12 12.8332C12.2301 12.8332 12.4167 13.0198 12.4167 13.2499V16.5832C12.4167 16.8133 12.2301 16.9999 12 16.9999C11.7699 16.9999 11.5833 16.8133 11.5833 16.5832V13.2499C11.5833 13.0198 11.7699 12.8332 12 12.8332Z" fill="#3F4144"/>
</g>
<defs>
<filter id="filter0_d_13849_4389" x="0" y="0" width="24" height="24" filterUnits="userSpaceOnUse" color-interpolation-filters="sRGB">
<feFlood flood-opacity="0" result="BackgroundImageFix"/>
<feColorMatrix in="SourceAlpha" type="matrix" values="0 0 0 0 0 0 0 0 0 0 0 0 0 0 0 0 0 0 127 0" result="hardAlpha"/>
<feOffset/>
<feGaussianBlur stdDeviation="1"/>
<feComposite in2="hardAlpha" operator="out"/>
<feColorMatrix type="matrix" values="0 0 0 0 0.245833 0 0 0 0 0.245833 0 0 0 0 0.245833 0 0 0 0.16 0"/>
<feBlend mode="normal" in2="BackgroundImageFix" result="effect1_dropShadow_13849_4389"/>
<feBlend mode="normal" in="SourceGraphic" in2="effect1_dropShadow_13849_4389" result="shape"/>
</filter>
</defs>
</svg>
