<svg width="24" height="24" viewBox="0 0 24 24" fill="none" xmlns="http://www.w3.org/2000/svg">
<g filter="url(#filter0_d_13849_4391)">
<rect x="2" y="2" width="20" height="20" rx="10" fill="#FDFDFD" fill-opacity="0.8" shape-rendering="crispEdges"/>
<rect x="2.5" y="2.5" width="19" height="19" rx="9.5" stroke="#396BD1" shape-rendering="crispEdges"/>
<path fill-rule="evenodd" clip-rule="evenodd" d="M11.5875 7.50417C11.8153 7.27636 12.1847 7.27636 12.4125 7.50417L16.4958 11.5875C16.7236 11.8153 16.7236 12.1847 16.4958 12.4125C16.268 12.6403 15.8987 12.6403 15.6709 12.4125L12.5833 9.32494V16.0833C12.5833 16.4055 12.3222 16.6666 12 16.6666C11.6778 16.6666 11.4167 16.4055 11.4167 16.0833V9.32494L8.32916 12.4125C8.10135 12.6403 7.732 12.6403 7.5042 12.4125C7.27639 12.1847 7.27639 11.8153 7.5042 11.5875L11.5875 7.50417Z" fill="#396BD1"/>
</g>
<defs>
<filter id="filter0_d_13849_4391" x="0" y="0" width="24" height="24" filterUnits="userSpaceOnUse" color-interpolation-filters="sRGB">
<feFlood flood-opacity="0" result="BackgroundImageFix"/>
<feColorMatrix in="SourceAlpha" type="matrix" values="0 0 0 0 0 0 0 0 0 0 0 0 0 0 0 0 0 0 127 0" result="hardAlpha"/>
<feOffset/>
<feGaussianBlur stdDeviation="1"/>
<feComposite in2="hardAlpha" operator="out"/>
<feColorMatrix type="matrix" values="0 0 0 0 0.245833 0 0 0 0 0.245833 0 0 0 0 0.245833 0 0 0 0.16 0"/>
<feBlend mode="normal" in2="BackgroundImageFix" result="effect1_dropShadow_13849_4391"/>
<feBlend mode="normal" in="SourceGraphic" in2="effect1_dropShadow_13849_4391" result="shape"/>
</filter>
</defs>
</svg>
