<svg width="16" height="16" viewBox="0 0 16 16" fill="none" xmlns="http://www.w3.org/2000/svg">
<path d="M6 6.33366C6 6.70185 5.70152 7.00033 5.33333 7.00033C4.96514 7.00033 4.66667 6.70185 4.66667 6.33366C4.66667 5.96547 4.96514 5.66699 5.33333 5.66699C5.70152 5.66699 6 5.96547 6 6.33366Z" fill="#96979F"/>
<path d="M6.66667 6.33366C6.66667 5.96547 6.96514 5.66699 7.33333 5.66699H10.6667C11.0349 5.66699 11.3333 5.96547 11.3333 6.33366C11.3333 6.70185 11.0349 7.00033 10.6667 7.00033H7.33333C6.96514 7.00033 6.66667 6.70185 6.66667 6.33366Z" fill="#96979F"/>
<path d="M5.33333 9.66699C5.70152 9.66699 6 9.36851 6 9.00033C6 8.63214 5.70152 8.33366 5.33333 8.33366C4.96514 8.33366 4.66667 8.63214 4.66667 9.00033C4.66667 9.36851 4.96514 9.66699 5.33333 9.66699Z" fill="#96979F"/>
<path d="M6 11.667C6 12.0352 5.70152 12.3337 5.33333 12.3337C4.96514 12.3337 4.66667 12.0352 4.66667 11.667C4.66667 11.2988 4.96514 11.0003 5.33333 11.0003C5.70152 11.0003 6 11.2988 6 11.667Z" fill="#96979F"/>
<path d="M7.33333 8.33366C6.96514 8.33366 6.66667 8.63214 6.66667 9.00033C6.66667 9.36851 6.96514 9.66699 7.33333 9.66699H10.6667C11.0349 9.66699 11.3333 9.36851 11.3333 9.00033C11.3333 8.63214 11.0349 8.33366 10.6667 8.33366H7.33333Z" fill="#96979F"/>
<path d="M6.66667 11.667C6.66667 11.2988 6.96514 11.0003 7.33333 11.0003H10.6667C11.0349 11.0003 11.3333 11.2988 11.3333 11.667C11.3333 12.0352 11.0349 12.3337 10.6667 12.3337H7.33333C6.96514 12.3337 6.66667 12.0352 6.66667 11.667Z" fill="#96979F"/>
<path fill-rule="evenodd" clip-rule="evenodd" d="M6 0.666992C5.26362 0.666992 4.66667 1.26395 4.66667 2.00033L4 2.00033C2.89543 2.00033 2 2.89576 2 4.00032V13.3337C2 14.4382 2.89543 15.3337 4 15.3337H12C13.1046 15.3337 14 14.4382 14 13.3337V4.00033C14 2.89576 13.1046 2.00033 12 2.00033H11.3333C11.3333 1.26395 10.7364 0.666992 10 0.666992H6ZM6.33333 2.66699V2.00033H9.66667V2.66699H6.33333ZM4 3.33366H4.84504C5.07558 3.73219 5.50648 4.00033 6 4.00033H10C10.4935 4.00033 10.9244 3.73219 11.155 3.33366H12C12.3682 3.33366 12.6667 3.63214 12.6667 4.00033V13.3337C12.6667 13.7018 12.3682 14.0003 12 14.0003H4C3.63181 14.0003 3.33333 13.7018 3.33333 13.3337V4.00032C3.33333 3.63214 3.63181 3.33366 4 3.33366Z" fill="#96979F"/>
</svg>
