<svg width="44" height="44" viewBox="0 0 44 44" fill="none" xmlns="http://www.w3.org/2000/svg">
<g filter="url(#filter0_d_3127_106976)">
<rect x="2" y="2" width="40" height="40" rx="20" fill="#396BD1" shape-rendering="crispEdges"/>
<rect x="2.5" y="2.5" width="39" height="39" rx="19.5" stroke="#FDFDFD" shape-rendering="crispEdges"/>
<path fill-rule="evenodd" clip-rule="evenodd" d="M14.0573 19.9527C14.725 20.0207 15.2459 20.5852 15.246 21.2708V21.9175L23.7957 23.6275C24.5021 23.7687 25.0481 24.2942 25.238 24.9597C29.0152 24.2445 31.0854 24.1256 32.1424 24.1526C32.4732 24.1611 32.9244 24.225 33.3001 24.4113C33.4888 24.505 33.7348 24.6669 33.8964 24.9429C34.0794 25.2559 34.0953 25.6145 33.974 25.944C33.8492 26.2825 33.6134 26.608 33.3583 26.8986C33.0933 27.2004 32.7614 27.5153 32.3869 27.8299C31.6371 28.4598 30.6746 29.127 29.6331 29.7352C28.5911 30.3436 27.4518 30.9039 26.3452 31.3145C25.2492 31.721 24.1331 32 23.1542 32C23.0237 31.9999 22.896 31.9741 22.8101 31.9547C22.7104 31.9323 22.5988 31.902 22.4829 31.8668C22.2503 31.796 21.9632 31.6964 21.6408 31.5757C20.994 31.3336 20.172 30.9949 19.2919 30.6031C17.9693 30.0142 16.4827 29.2884 15.246 28.5736V29.2178C15.246 29.9493 14.653 30.5423 13.9215 30.5423H11.2725C10.541 30.5423 9.948 29.9493 9.948 29.2178V21.2708C9.94813 20.5394 10.5411 19.9463 11.2725 19.9463H13.9215L14.0573 19.9527ZM15.246 26.7123C16.4946 27.5171 18.3094 28.4251 19.9387 29.1505C20.7965 29.5325 21.5881 29.8585 22.1983 30.087C22.5043 30.2015 22.7574 30.2883 22.9459 30.3457C23.0405 30.3744 23.1112 30.3943 23.1594 30.4052C23.1681 30.4071 23.1756 30.4079 23.1814 30.409C23.8865 30.4039 24.789 30.1963 25.7916 29.8244C26.7961 29.4517 27.8521 28.9332 28.8312 28.3615C29.8109 27.7894 30.6974 27.1736 31.3651 26.6128C31.6988 26.3323 31.968 26.0745 32.1644 25.8509C32.1946 25.8166 32.2207 25.7821 32.2459 25.7513C32.1967 25.746 32.1474 25.7434 32.101 25.7423C31.1462 25.7179 29.0293 25.8282 24.9068 26.6412C24.5616 27.08 24.0277 27.3629 23.4258 27.363H19.5248C19.086 27.3627 18.7306 27.0075 18.7306 26.5688C18.7307 26.1301 19.0861 25.7748 19.5248 25.7746H23.4258C23.5898 25.7746 23.7233 25.6411 23.7233 25.4771C23.7232 25.3356 23.6228 25.2138 23.484 25.1861L15.246 23.5369V26.7123ZM11.5377 28.9526H13.6563V21.5359H11.5377V28.9526Z" fill="#FDFDFD"/>
<path fill-rule="evenodd" clip-rule="evenodd" d="M26.1072 12.3446C26.4703 11.8851 27.1733 11.8851 27.5364 12.3446L29.4417 14.7556C30.0814 15.5649 30.4492 16.551 30.4493 17.4874C30.449 19.2963 28.7481 20.8685 26.8211 20.8685C24.8939 20.8683 23.1933 19.2961 23.193 17.4874C23.1926 16.5341 23.576 15.5474 24.2019 14.7556L26.1072 12.3446ZM25.1267 15.3817C24.6647 15.9965 24.4007 16.742 24.4011 17.4202L24.414 17.6413C24.5405 18.7382 25.5863 19.743 26.8211 19.7432C28.1383 19.7432 29.2409 18.5994 29.2412 17.4202C29.2412 16.7535 28.9885 16.0093 28.5169 15.3817L26.8211 13.1259L25.1267 15.3817Z" fill="#FDFDFD"/>
</g>
<defs>
<filter id="filter0_d_3127_106976" x="0" y="0" width="44" height="44" filterUnits="userSpaceOnUse" color-interpolation-filters="sRGB">
<feFlood flood-opacity="0" result="BackgroundImageFix"/>
<feColorMatrix in="SourceAlpha" type="matrix" values="0 0 0 0 0 0 0 0 0 0 0 0 0 0 0 0 0 0 127 0" result="hardAlpha"/>
<feOffset/>
<feGaussianBlur stdDeviation="1"/>
<feComposite in2="hardAlpha" operator="out"/>
<feColorMatrix type="matrix" values="0 0 0 0 0.245833 0 0 0 0 0.245833 0 0 0 0 0.245833 0 0 0 0.16 0"/>
<feBlend mode="normal" in2="BackgroundImageFix" result="effect1_dropShadow_3127_106976"/>
<feBlend mode="normal" in="SourceGraphic" in2="effect1_dropShadow_3127_106976" result="shape"/>
</filter>
</defs>
</svg>
