<svg width="720" height="220" viewBox="0 0 720 220" fill="none" xmlns="http://www.w3.org/2000/svg">
<path d="M50.2648 70.7559L117.96 43.7838C120.833 42.639 124.037 42.6477 126.904 43.8081L193.497 70.7626C195.459 71.5567 195.555 74.2899 193.631 75.1721C177.776 82.4425 129.498 104.312 122.437 104.312C115.376 104.312 66.2782 82.4525 50.1329 75.1772C48.1904 74.3018 48.2855 71.5446 50.2648 70.7559Z" fill="#34A5FA"/>
<path d="M122.727 72.188H49.2269C49.2269 72.188 48.98 72.947 49.2269 73.688C49.4932 74.4868 51.2269 75.188 51.2269 75.188L88.7269 91.688L122.727 72.188Z" fill="#54B6FC"/>
<path d="M158.337 57.188L193.227 71.188L131.727 72.188L158.337 57.188Z" fill="#49B1FD"/>
<path d="M122.227 72.188L88.7271 91.688C88.7271 91.688 99.0195 96.1272 105.727 98.688C109.932 100.293 115.71 102.094 119.33 103.184C121.546 103.852 123.905 103.832 126.109 103.124C130.052 101.857 136.616 99.6643 141.227 97.688L158.727 90.188L131.727 72.188H122.227Z" fill="#6BC4FC"/>
<path d="M50.1796 99.0828L70.57 90.7413C71.2346 90.4694 71.9847 90.5062 72.621 90.8389C78.8726 94.1079 112.571 111.486 122.437 111.486C132.303 111.486 167.495 94.1055 174.023 90.8382C174.685 90.507 175.461 90.4931 176.133 90.8032L193.917 99.0111C195.789 99.8752 195.807 102.522 193.933 103.382C178.399 110.508 129.544 132.66 122.437 132.66C115.367 132.66 66.1501 110.744 50.0699 103.497C48.1371 102.626 48.2174 99.8856 50.1796 99.0828Z" fill="#006DE9"/>
<path d="M71.619 90.9172L57.0996 96.967L85.5334 98.1769L71.619 90.9172Z" fill="#0062D5"/>
<path d="M175.069 90.9172L188.379 96.967L159.945 98.1769L175.069 90.9172Z" fill="#0062D5"/>
<path d="M50.1796 127.431L70.57 119.089C71.2346 118.818 71.9847 118.854 72.621 119.187C78.8726 122.456 112.571 139.834 122.437 139.834C132.303 139.834 167.495 122.454 174.023 119.186C174.685 118.855 175.461 118.841 176.133 119.151L193.917 127.359C195.789 128.223 195.807 130.87 193.933 131.73C178.399 138.856 129.544 161.008 122.437 161.008C115.367 161.008 66.1501 139.092 50.0699 131.845C48.1371 130.974 48.2174 128.234 50.1796 127.431Z" fill="#000C34"/>
<path d="M71.619 119.87L57.0996 125.92L85.5334 127.13L71.619 119.87Z" fill="#030D23"/>
<path d="M175.069 119.87L188.379 125.92L159.945 127.13L175.069 119.87Z" fill="#030D23"/>
<path d="M615.017 127.388C615.017 114.36 626.835 106.575 639.843 106.575H657.689V100.379C657.689 93.2302 652.93 90.2117 644.84 90.2117C637.86 90.2117 632.704 92.5948 632.704 96.9637V99.3468H618.269V97.5198C618.269 82.7447 632.308 77.7403 644.998 77.7403C659.989 77.7403 673.791 82.7447 673.791 99.1879V131.995C673.791 135.013 674.187 145.022 674.98 146.452H659.038C658.8 145.419 658.482 141.289 658.403 140.256H658.165C652.216 146.452 647.14 147.803 638.415 147.803C624.455 147.803 615.017 140.097 615.017 127.388ZM657.689 121.589V118.332H641.905C635.084 118.332 630.563 120.715 630.563 126.593C630.563 132.233 635.163 135.172 642.698 135.172C655.627 135.093 657.689 128.817 657.689 121.589Z" fill="#FDFDFD"/>
<path d="M548.14 120.318V107.211C548.14 88.2258 562.337 77.7403 579.073 77.7403C593.668 77.7403 608.103 86.3193 608.103 104.192V117.22H564.796V120.874C564.796 129.453 571.776 134.457 580.342 134.457C585.736 134.457 591.367 130.883 594.937 125.799L607.31 132.948C602.075 143.513 591.367 147.961 579.549 147.961C563.051 147.882 548.14 138.747 548.14 120.318ZM592.081 106.019V104.192C592.081 94.9778 585.657 91.2443 579.073 91.2443C572.252 91.2443 564.876 94.8984 564.876 105.066V106.019H592.081Z" fill="#FDFDFD"/>
<path d="M502.069 79.0055H517.695V90.2059H517.933C521.899 83.0567 531.893 77.6551 539.904 77.6551C541.649 77.6551 543.552 77.6551 545.297 78.0523V92.8273C543.156 92.4301 541.49 92.4301 539.269 92.4301C527.134 92.4301 518.091 99.4204 518.091 111.892V146.367H502.069V79.0055Z" fill="#FDFDFD"/>
<path d="M428.124 127.388C428.124 114.36 439.942 106.575 452.95 106.575H470.797V100.379C470.797 93.2302 466.038 90.2117 457.947 90.2117C450.967 90.2117 445.812 92.5947 445.812 96.9637V99.3468H431.376V97.5197C431.376 82.7447 445.415 77.7403 458.106 77.7403C473.097 77.7403 486.898 82.7447 486.898 99.1879V131.995C486.898 135.013 487.295 145.022 488.088 146.452H472.145C471.907 145.419 471.59 141.289 471.51 140.256H471.272C465.324 146.452 460.247 147.803 451.523 147.803C437.563 147.803 428.124 140.097 428.124 127.388ZM470.797 121.589V118.332H455.012C448.191 118.332 443.67 120.715 443.67 126.593C443.67 132.233 448.271 135.172 455.806 135.172C468.734 135.093 470.797 128.817 470.797 121.589Z" fill="#FDFDFD"/>
<path d="M422.489 78.5926L399.179 144.047H382.133L358.824 78.5926H375.273L390.315 127.215H390.997L406.082 78.5926H422.489Z" fill="#FAFAFA"/>
<path d="M332.733 144.047V78.5926H348.16V144.047H332.733Z" fill="#FAFAFA"/>
<path d="M292.027 145.326C285.493 145.326 279.882 143.891 275.194 141.022C270.535 138.152 266.941 134.189 264.413 129.132C261.913 124.047 260.663 118.195 260.663 111.576C260.663 104.928 261.941 99.0613 264.498 93.9761C267.055 88.8624 270.663 84.8852 275.322 82.0442C280.01 79.1749 285.549 77.7403 291.941 77.7403C297.254 77.7403 301.956 78.7204 306.047 80.6806C310.166 82.6124 313.447 85.3539 315.89 88.905C318.334 92.4278 319.726 96.5471 320.066 101.263H305.322C304.726 98.1096 303.305 95.4817 301.061 93.3795C298.845 91.2488 295.876 90.1834 292.155 90.1834C289.001 90.1834 286.231 91.0357 283.845 92.7403C281.459 94.4164 279.598 96.8312 278.263 99.9846C276.956 103.138 276.302 106.916 276.302 111.32C276.302 115.78 276.956 119.615 278.263 122.826C279.569 126.007 281.402 128.465 283.76 130.198C286.146 131.902 288.944 132.754 292.155 132.754C294.427 132.754 296.459 132.328 298.248 131.476C300.066 130.595 301.586 129.331 302.808 127.683C304.03 126.036 304.868 124.033 305.322 121.675H320.066C319.697 126.306 318.334 130.411 315.976 133.99C313.618 137.541 310.407 140.326 306.345 142.343C302.282 144.331 297.51 145.326 292.027 145.326Z" fill="#FAFAFA"/>
<path d="M334.206 70.4364C335.978 72.1769 338.092 73.0471 340.549 73.0471C343.035 73.0471 345.149 72.1769 346.892 70.4364C348.664 68.6654 349.549 66.5433 349.549 64.07C349.549 61.5662 348.664 59.444 346.892 57.7036C345.149 55.9326 343.035 55.0471 340.549 55.0471C338.092 55.0471 335.978 55.9326 334.206 57.7036C332.435 59.444 331.549 61.5662 331.549 64.07C331.549 66.5433 332.435 68.6654 334.206 70.4364Z" fill="#FAFAFA"/>
</svg>
